uphill_walking_calibrated_grf.mot																																				
version=1																																				
nRows=19																																				
nColumns=37																																				
inDegrees=yes																																				
endheader																																				
time	ground_force1_vx	ground_force1_vy	ground_force1_vz	ground_force1_px	ground_force1_py	ground_force1_pz	ground_torque1_x	ground_torque1_y	ground_torque1_z	ground_force2_vx	ground_force2_vy	ground_force2_vz	ground_force2_px	ground_force2_py	ground_force2_pz	ground_torque2_x	ground_torque2_y	ground_torque2_z	femur_assistance_force_vx	femur_assistance_force_vy	femur_assistance_force_vz	femur_assistance_force_px	femur_assistance_force_py	femur_assistance_force_pz	femur_assistance_torque_x	femur_assistance_torque_y	femur_assistance_torque_z	tibia_assistance_force_vx	tibia_assistance_force_vy	tibia_assistance_force_vz	tibia_assistance_force_px	tibia_assistance_force_py	tibia_assistance_force_pz	tibia_assistance_torque_x	tibia_assistance_torque_y	tibia_assistance_torque_z
28.38	0	0	0	0.889	0	-0.840175	0	0	0	225.232239	652.752197	-60.540405	0.515123	0	-0.472499	0.000028	-6.601352	0.000058	0.897112443	102.7989038	0	0	-0.2	0	0	0	0	0.897112443	-102.7989038	0	0	-0.2	0	0	0	0
28.381	0	0	0	0.889	0	-0.840175	0	0	0	225.995178	654.125488	-61.303345	0.514975	0	-0.472906	-0.000007	-6.609006	0.000023	0.894071188	102.4504105	0	0	-0.2	0	0	0	0	0.894071188	-102.4504105	0	0	-0.2	0	0	0	0
28.382	0	0	0	0.889	0	-0.840175	0	0	0	226.22406	655.498779	-61.684814	0.51371	0	-0.472567	0.000013	-5.850783	0.000034	0.890926076	102.0900164	0	0	-0.2	0	0	0	0	0.890926076	-102.0900164	0	0	-0.2	0	0	0	0
28.383	0	0	0	0.889	0	-0.840175	0	0	0	226.910706	655.956543	-61.074463	0.511118	0	-0.472331	0.000012	-5.616811	0.000037	0.887780964	101.7296223	0	0	-0.2	0	0	0	0	0.887780964	-101.7296223	0	0	-0.2	0	0	0	0
28.384	0	0	0	0.889	0	-0.840175	0	0	0	228.283997	656.261719	-60.311527	0.510323	0	-0.472483	0.000001	-6.005767	0.000011	0.884635852	101.3692281	0	0	-0.2	0	0	0	0	0.884635852	-101.3692281	0	0	-0.2	0	0	0	0
28.385	0	0	0	0.889	0	-0.840175	0	0	0	230.115051	657.940186	-59.853764	0.510691	0	-0.472298	0.000008	-6.368542	0.000044	0.88149074	101.008834	0	0	-0.2	0	0	0	0	0.88149074	-101.008834	0	0	-0.2	0	0	0	0
28.386	0	0	0	0.889	0	-0.840175	0	0	0	231.488342	659.923828	-60.082645	0.51008	0	-0.472173	0.000012	-6.35872	0.000028	0.878345628	100.6484399	0	0	-0.2	0	0	0	0	0.878345628	-100.6484399	0	0	-0.2	0	0	0	0
28.387	0	0	0	0.889	0	-0.840175	0	0	0	232.327576	661.449707	-59.624882	0.509826	0	-0.472653	0.000013	-6.687758	0.000005	0.875200516	100.2880458	0	0	-0.2	0	0	0	0	0.875200516	-100.2880458	0	0	-0.2	0	0	0	0
28.388	0	0	0	0.889	0	-0.840175	0	0	0	233.548279	663.128174	-59.319706	0.509088	0	-0.472469	0.000017	-6.810792	0.000046	0.872055405	99.92765165	0	0	-0.2	0	0	0	0	0.872055405	-99.92765165	0	0	-0.2	0	0	0	0
28.389	0	0	0	0.889	0	-0.840175	0	0	0	234.387512	664.654053	-58.099003	0.508287	0	-0.472027	0.000004	-6.612081	0.000029	0.868910293	99.56725753	0	0	-0.2	0	0	0	0	0.868910293	-99.56725753	0	0	-0.2	0	0	0	0
28.39	0	0	0	0.889	0	-0.840175	0	0	0	235.226746	665.874756	-57.107182	0.508638	0	-0.471987	0.000003	-6.567256	0.000058	0.865765181	99.20686341	0	0	-0.2	0	0	0	0	0.865765181	-99.20686341	0	0	-0.2	0	0	0	0
28.391	0	0	0	0.889	0	-0.840175	0	0	0	235.760803	667.248047	-56.344242	0.507957	0	-0.471655	0.000008	-6.19113	0.00001	0.862620069	98.84646928	0	0	-0.2	0	0	0	0	0.862620069	-98.84646928	0	0	-0.2	0	0	0	0
28.392	0	0	0	0.889	0	-0.840175	0	0	0	236.600037	668.163574	-55.657597	0.506896	0	-0.472562	0.000007	-6.293809	0.00004	0.859469418	98.48544049	0	0	-0.2	0	0	0	0	0.859469418	-98.48544049	0	0	-0.2	0	0	0	0
28.393	0	0	0	0.889	0	-0.840175	0	0	0	237.591858	669.231689	-54.589481	0.505175	0	-0.472355	0.000016	-6.555237	-0.000005	0.85621464	98.11247976	0	0	-0.2	0	0	0	0	0.85621464	-98.11247976	0	0	-0.2	0	0	0	0
28.394	0	0	0	0.889	0	-0.840175	0	0	0	239.041443	669.231689	-52.758427	0.503533	0	-0.472902	0.000009	-6.795462	0.000027	0.852959861	97.73951904	0	0	-0.2	0	0	0	0	0.852959861	-97.73951904	0	0	-0.2	0	0	0	0
28.395	0	0	0	0.889	0	-0.840175	0	0	0	240.643616	669.384277	-50.851078	0.501412	0	-0.473342	0.000019	-6.835003	0.000027	0.849705082	97.36655832	0	0	-0.2	0	0	0	0	0.849705082	-97.36655832	0	0	-0.2	0	0	0	0
28.396	0	0	0	0.889	0	-0.840175	0	0	0	241.711731	669.079102	-48.867435	0.500364	0	-0.47374	0.00001	-6.590641	0.000047	0.863583223	96.99344656	0	0	-0.2	0	0	0	0	0.863583223	-96.99344656	0	0	-0.2	0	0	0	0
28.397	0	0	0	0.889	0	-0.840175	0	0	0	242.245789	669.384277	-46.883793	0.500501	0	-0.473433	0.000009	-6.046384	0.000003	0.920298045	96.61993324	0	0	-0.2	0	0	0	0	0.920298045	-96.61993324	0	0	-0.2	0	0	0	0
28.398	0	0	0	0.889	0	-0.840175	0	0	0	242.627258	670.757568	-45.129032	0.501296	0	-0.473009	0.000003	-5.196634	0.000009	0.976549033	96.24638703	0	0	-0.2	0	0	0	0	0.976549033	-96.24638703	0	0	-0.2	0	0	0	0
